<?xml version="1.0" encoding="UTF-8" standalone="no"?><!DOCTYPE svg PUBLIC "-//W3C//DTD SVG 1.1//EN" "http://www.w3.org/Graphics/SVG/1.1/DTD/svg11.dtd"><svg preserveAspectRatio="none" width="160" height="3393" viewBox="0 0 160 3393" xmlns="http://www.w3.org/2000/svg" xmlns:xlink="http://www.w3.org/1999/xlink"><svg preserveAspectRatio="none" width="36.88" height="36.88" viewBox="-0.61 -3.5 36.88 36.88" id="account__light" xmlns="http://www.w3.org/2000/svg"><g transform="matrix(1 0 0 .98286 2.597 .553)" fill="#fff"><path d="M15.238 7.961a2.928 2.928 0 0 1 2.924 2.924 2.927 2.927 0 0 1-2.924 2.923 2.926 2.926 0 0 1-2.923-2.923 2.927 2.927 0 0 1 2.923-2.924m0-1.461a4.385 4.385 0 1 0 0 8.77 4.385 4.385 0 0 0 0-8.77z"/><path d="M15.238 15.269a4.387 4.387 0 0 1 4.383 4.382v1.665h-8.765v-1.665a4.387 4.387 0 0 1 4.382-4.382m0-1.461a5.843 5.843 0 0 0-5.844 5.843v3.128h11.688v-3.128a5.843 5.843 0 0 0-5.844-5.843z"/></g></svg><svg preserveAspectRatio="none" width="35" height="35" viewBox="-10 -10 35 35" id="american_express" y="37" xmlns="http://www.w3.org/2000/svg"><path d="M6.206 5.861v-.366H4.8v1.756h1.406V6.89h-.987v-.35h.96v-.36h-.96V5.86zm1.978.106c0-.196-.08-.313-.212-.387-.138-.08-.292-.085-.51-.085h-.964v1.761h.419v-.642h.45c.154 0 .244.016.308.074.074.085.069.24.069.345v.223h.424v-.345c0-.159-.01-.233-.069-.323a.496.496 0 0 0-.207-.149.507.507 0 0 0 .292-.472zm-.551.25c-.059.037-.128.037-.207.037h-.51V5.86h.52c.075 0 .149.005.202.032.053.026.09.08.09.154-.005.08-.037.138-.095.17zm-7.06.647h.875l.16.392h.853V5.877l.61 1.38h.371l.61-1.38v1.38h.43V5.494h-.695L3.283 6.69l-.551-1.194h-.685v1.666l-.716-1.666H.705L0 7.14v.112h.408l.165-.387zm.435-1.072l.286.7H.721l.287-.7zm8.927.08h.397v-.377h-.408c-.292 0-.504.064-.637.207-.18.19-.228.424-.228.69 0 .318.075.52.223.673.117.16.329.218.61.196h.493l.16-.392h.875l.164.392h.854v-1.32l.796 1.32h.594v-1.76h-.43v1.225L12.661 5.5h-.642v1.666L11.31 5.5h-.627l-.594 1.385h-.19c-.112 0-.229-.021-.292-.09-.08-.09-.117-.223-.117-.414 0-.186.048-.324.122-.398.085-.09.17-.111.324-.111zm1.05-.08l.292.7h-.579l.287-.7zm-2.557-.297h.43v1.761h-.43v-1.76zm1.56 3.5a.414.414 0 0 0-.218-.392c-.138-.074-.292-.085-.504-.085h-.97v1.761h.424v-.642h.45c.155 0 .25.016.308.08.08.08.07.239.07.345v.217h.424v-.35c0-.154-.01-.233-.07-.323a.464.464 0 0 0-.206-.149c.1-.037.292-.18.292-.461zm-.552.25a.425.425 0 0 1-.207.037h-.51V8.89h.52c.075 0 .15 0 .202.031.053.027.085.085.085.16a.187.187 0 0 1-.09.164zm-2.047-.721H6.047l-.536.578-.52-.578H3.304v1.76H4.97l.536-.583.52.584h.816v-.59h.525c.366 0 .732-.1.732-.588-.005-.493-.376-.583-.71-.583zm-2.637 1.39H3.724v-.35h.922v-.361h-.922v-.319h1.055l.461.515-.488.514zm1.671.206l-.647-.716.647-.695v1.411zm.96-.785h-.54V8.89h.546c.153 0 .254.063.254.217 0 .149-.1.228-.26.228zm4.238-.45v-.361h-1.4v1.755h1.4v-.366h-.981v-.35h.96v-.36h-.96v-.319zm3.283.514a.143.143 0 0 0-.037-.043c-.095-.095-.249-.137-.477-.143l-.228-.005a.495.495 0 0 1-.165-.021.134.134 0 0 1-.09-.133c0-.058.016-.095.064-.127.042-.027.095-.032.17-.032h.763v-.377h-.838c-.44 0-.604.27-.604.525 0 .557.493.53.886.547.074 0 .116.01.148.037a.144.144 0 0 1 .053.117.179.179 0 0 1-.048.116c-.031.032-.09.043-.17.043h-.806v.376h.812c.27 0 .467-.074.573-.222a.573.573 0 0 0 .09-.33.551.551 0 0 0-.096-.328zm-.615 1.225h-1.087v-.159c-.127.1-.355.16-.573.16H9.197v-.568c0-.07-.005-.075-.074-.075H9.07v.642H7.94v-.663c-.19.08-.403.09-.583.085h-.133v.583H5.856l-.34-.381-.355.381H2.923V8.174h2.264l.324.376.345-.376h1.517c.175 0 .461.016.594.143v-.143h1.358c.127 0 .403.026.567.143v-.143h2.053v.143c.1-.096.318-.143.504-.143h1.15v.143a.897.897 0 0 1 .526-.143h.78V0H0v6.19l.456-1.045h1.098l.143.292v-.292h1.284l.281.631.276-.631h4.079c.185 0 .35.037.472.143v-.143h1.119v.143c.19-.106.43-.143.7-.143h1.618l.148.292v-.292h1.2l.164.292v-.292h1.166v2.45h-1.177l-.223-.37v.37H11.33l-.16-.392h-.36l-.165.392h-.763c-.303 0-.526-.069-.674-.148v.148H7.394V7.04c0-.08-.016-.085-.064-.085h-.069v.641H3.75v-.302l-.127.302H2.89l-.128-.302v.297h-1.41l-.16-.392h-.36l-.165.392H0V15h14.9v-4.498c-.165.09-.388.122-.61.122zm-1.602-.721h-.816v.376h.816c.425 0 .658-.175.658-.557 0-.18-.042-.286-.127-.37-.096-.096-.25-.139-.483-.144l-.228-.005a.495.495 0 0 1-.164-.022.134.134 0 0 1-.09-.132c0-.059.015-.096.063-.128.043-.026.09-.031.17-.031h.769v-.377h-.843c-.44 0-.6.27-.6.525 0 .557.494.53.886.546.074 0 .117.011.149.038a.162.162 0 0 1 .053.116.179.179 0 0 1-.048.117c-.027.037-.085.048-.165.048z"/></svg><svg preserveAspectRatio="none" width="34" height="34" viewBox="-10 -10 34 34" id="arrow-down" y="72" xmlns="http://www.w3.org/2000/svg"><title>arrow-down</title><path d="M7 12L0 4h14" fill="#2b292a" fill-rule="evenodd"/></svg><svg preserveAspectRatio="none" width="27" height="27" viewBox="-10 -10 27 27" id="arrow-left" y="106" xmlns="http://www.w3.org/2000/svg"><path fill="#2b292a" d="M1.75 3.5L5.25 7V0z"/></svg><svg preserveAspectRatio="none" width="27" height="27" viewBox="-10 -10 27 27" id="arrow-right" y="133" xmlns="http://www.w3.org/2000/svg"><path fill="#2b292a" d="M1.75 7l4-3.5-4-3.5z"/></svg><svg preserveAspectRatio="none" width="27" height="27" viewBox="-10 -10 27 27" id="arrow-up" y="160" xmlns="http://www.w3.org/2000/svg"><path d="M3.5 1.75L0 5.25h7" fill="#2b292a"/></svg><svg preserveAspectRatio="none" width="47.57" height="42.4" viewBox="-4.09 -5.38 47.57 42.4" id="bespoke" y="187" xmlns="http://www.w3.org/2000/svg"><g fill="#2C2A2B"><path d="M16.245 6.338a8.56 8.56 0 0 1 6.091 2.522 8.562 8.562 0 0 1 2.524 6.092v8.614h-8.615a8.555 8.555 0 0 1-6.092-2.523 8.559 8.559 0 0 1-2.522-6.091c0-2.301.896-4.464 2.522-6.092a8.56 8.56 0 0 1 6.092-2.522m0-1.723c-5.71 0-10.337 4.628-10.337 10.337S10.535 25.29 16.245 25.29h10.338V14.953c0-5.71-4.629-10.338-10.338-10.338zM26.583 23.568h5.168v1.723h-5.168zM31.75 25.291h1.723v1.723H31.75z"/><path d="M31.75 23.568h1.723v1.723H31.75zM16.245 12.368a2.587 2.587 0 0 1 2.584 2.584 2.587 2.587 0 0 1-2.584 2.584 2.585 2.585 0 0 1 0-5.168m0-1.722a4.306 4.306 0 1 0 0 8.613 4.306 4.306 0 0 0 0-8.613z"/></g></svg><svg preserveAspectRatio="none" width="47.57" height="42.4" viewBox="-4.09 -5.38 47.57 42.4" id="bespoke__small" y="230" xmlns="http://www.w3.org/2000/svg"><g fill="#2C2A2B"><path d="M16.245 6.338a8.56 8.56 0 0 1 6.091 2.522 8.562 8.562 0 0 1 2.524 6.092v8.614h-8.615a8.555 8.555 0 0 1-6.092-2.523 8.559 8.559 0 0 1-2.522-6.091c0-2.301.896-4.464 2.522-6.092a8.56 8.56 0 0 1 6.092-2.522m0-1.723c-5.71 0-10.337 4.628-10.337 10.337S10.535 25.29 16.245 25.29h10.338V14.953c0-5.71-4.629-10.338-10.338-10.338zM26.583 23.568h5.168v1.723h-5.168zM31.75 25.291h1.723v1.723H31.75z"/><path d="M31.75 23.568h1.723v1.723H31.75zM16.245 12.368a2.587 2.587 0 0 1 2.584 2.584 2.587 2.587 0 0 1-2.584 2.584 2.585 2.585 0 0 1 0-5.168m0-1.722a4.306 4.306 0 1 0 0 8.613 4.306 4.306 0 0 0 0-8.613z"/></g></svg><svg preserveAspectRatio="none" width="44.19" height="44" viewBox="-10 -10 44.19 44" id="call" y="273" xmlns="http://www.w3.org/2000/svg"><path d="M19.366.435l-3.763 3.762a1.605 1.605 0 0 0-.453 1.15c0 .47.183.926.506 1.248l2.035 2.033-.305.55c-.672 1.208-1.589 2.863-3.34 4.612-1.754 1.756-3.414 2.675-4.627 3.347l-.534.3L6.85 15.4c-.676-.674-1.75-.696-2.399-.05L.69 19.113a1.606 1.606 0 0 0-.456 1.148c0 .473.185.927.508 1.25l.93.923.141.086c.443.343.938.625 1.477.836a6.154 6.154 0 0 0 1.496.374c4.031.484 7.732-1.374 12.776-6.418 5.976-5.98 6.44-10.975 6.44-12.363 0-.238-.012-.382-.016-.422a6.177 6.177 0 0 0-.378-1.501 5.757 5.757 0 0 0-.833-1.468l-.165-.211-.847-.864c-.676-.673-1.75-.694-2.397-.048z" fill="#333"/></svg><svg preserveAspectRatio="none" width="44.19" height="44" viewBox="-10 -10 44.19 44" id="call__sale" y="317" xmlns="http://www.w3.org/2000/svg"><path d="M19.366.435l-3.763 3.762a1.605 1.605 0 0 0-.453 1.15c0 .47.183.926.506 1.248l2.035 2.033-.305.55c-.672 1.208-1.589 2.863-3.34 4.612-1.754 1.756-3.414 2.675-4.627 3.347l-.534.3L6.85 15.4c-.676-.674-1.75-.696-2.399-.05L.69 19.113a1.606 1.606 0 0 0-.456 1.148c0 .473.185.927.508 1.25l.93.923.141.086c.443.343.938.625 1.477.836a6.154 6.154 0 0 0 1.496.374c4.031.484 7.732-1.374 12.776-6.418 5.976-5.98 6.44-10.975 6.44-12.363 0-.238-.012-.382-.016-.422a6.177 6.177 0 0 0-.378-1.501 5.757 5.757 0 0 0-.833-1.468l-.165-.211-.847-.864c-.676-.673-1.75-.694-2.397-.048z" fill="#e85a46"/></svg><svg preserveAspectRatio="none" width="44.19" height="44" viewBox="-10 -10 44.19 44" id="callforprice" y="361" xmlns="http://www.w3.org/2000/svg"><g transform="matrix(.20237 0 0 .20237 -56.056 -57.068)"><path d="M312.879 282H277v35.454l36.127 36.675 36.624-36.748L312.899 282h-.02zm-13.78 21.6a6.495 6.495 0 1 1-9.188-9.186 6.493 6.493 0 0 1 9.188 0 6.491 6.491 0 0 1 0 9.186zM377.577 304.927l-15.401 15.399c-1.197 1.197-1.855 2.871-1.853 4.705-.002 1.928.746 3.793 2.068 5.108l8.329 8.322-1.245 2.251c-2.751 4.944-6.505 11.719-13.674 18.878-7.178 7.185-13.97 10.947-18.936 13.7l-2.184 1.228-8.336-8.339c-2.765-2.758-7.161-2.85-9.818-.205l-15.392 15.401c-1.204 1.202-1.86 2.871-1.863 4.7 0 1.935.758 3.795 2.077 5.113l3.805 3.779.581.355a24.322 24.322 0 0 0 6.044 3.421c2.104.801 4.114 1.298 6.121 1.53 16.501 1.983 31.649-5.624 52.293-26.269 24.459-24.473 26.363-44.92 26.363-50.602a19.453 19.453 0 0 0-.068-1.725 25.28 25.28 0 0 0-1.549-6.146c-.859-2.188-1.995-4.213-3.409-6.005l-.676-.866-3.467-3.535c-2.764-2.756-7.163-2.84-9.81-.198z" fill="#333"/></g></svg><svg preserveAspectRatio="none" width="37.56" height="36.83" viewBox="-9.53 -1.78 37.56 36.83" id="cart" y="405" xmlns="http://www.w3.org/2000/svg"><path d="M16.384 14.07l-1.12 9.513H3.234l-1.12-9.513h14.27m1.646-1.464H.469l1.463 12.439h14.634l1.464-12.439z"/><path d="M8.518 8.217h1.463v4.39H8.518z"/></svg><svg preserveAspectRatio="none" width="37.56" height="36.83" viewBox="-9.53 -1.78 37.56 36.83" id="cart__light" y="442" xmlns="http://www.w3.org/2000/svg"><g fill="#FFF"><path d="M16.384 14.07l-1.12 9.513H3.234l-1.12-9.513h14.27m1.646-1.464H.469l1.463 12.439h14.634l1.464-12.439z"/><path d="M8.518 8.217h1.463v4.39H8.518z"/></g></svg><svg preserveAspectRatio="none" width="41.54" height="41.54" viewBox="-10 -10 41.54 41.54" id="clock" y="479" xmlns="http://www.w3.org/2000/svg"><g transform="scale(1.08706)"><path d="M9.908 18.093a8.136 8.136 0 0 1-5.787-2.396 8.129 8.129 0 0 1-2.396-5.788c0-2.186.85-4.242 2.396-5.787a8.127 8.127 0 0 1 5.787-2.398 8.13 8.13 0 0 1 5.787 2.398 8.125 8.125 0 0 1 2.398 5.787 8.135 8.135 0 0 1-2.398 5.788 8.136 8.136 0 0 1-5.787 2.396m0 1.722c5.472 0 9.908-4.436 9.908-9.907S15.38 0 9.908 0C4.436 0 0 4.437 0 9.908c0 5.471 4.437 9.907 9.908 9.907z" fill="#2c2a2a"/><g fill="#2c2a2a"><path d="M10.77 3.547H9.047v5.187l1.723 1.109zM13.938 11.882L10.77 9.843v2.049l2.234 1.437z"/><path d="M9.047 8.734v2.049l1.723 1.109V9.843z"/></g></g></svg><svg preserveAspectRatio="none" width="32" height="32" viewBox="-10 -10 32 32" id="close" y="521" xmlns="http://www.w3.org/2000/svg"><g transform="matrix(.35348 0 0 .35348 -.806 -.812)"><path d="M36.226 4.422L4.408 36.24l-2.125-2.125L34.102 2.297z"/><path d="M34.102 36.245L2.282 4.424l2.126-2.127 31.821 31.82z"/></g></svg><svg preserveAspectRatio="none" width="160" height="160" viewBox="-10 -10 160 160" id="coin-eur" y="553" xmlns="http://www.w3.org/2000/svg"><path fill="#FFF" d="M71.986 36.3c-3.084 0-6.113.471-9.203 1.371-3.09.9-6.143 2.343-8.812 4.112-2.668 1.769-4.959 4.021-7.049 6.657-2.09 2.637-3.737 5.141-4.896 9.399h-8.811v7.441h7.44c-.063 0-.164.856-.196 1.566-.031.71 0 1.316 0 1.958s-.031 1.348 0 2.154.133 1.763.196 1.763h-7.44v8.615h9.007a31.623 31.623 0 0 0 4.896 8.812c2.053 2.605 4.412 4.528 7.049 6.266 2.632 1.737 5.43 3.017 8.42 3.916 2.99.905 5.922 1.371 9.007 1.371 3.863 0 7.521-.706 10.77-1.958 3.247-1.258 6.04-2.848 8.419-4.896l-4.699-6.657c-1.736 1.736-3.786 3.047-6.266 3.916-2.474.868-5.328 1.371-8.224 1.371-4.248 0-8.047-.874-11.553-2.938-3.511-2.059-6.228-4.939-8.028-9.203h17.231l3.72-8.615H50.056c-.189-1.063-.392-2.116-.392-3.917 0-1.416.197-2.461.392-3.524H76.49l3.72-7.441H51.818c1.795-4.264 4.587-7.669 8.224-9.791 3.632-2.126 7.634-3.329 11.944-3.329 2.447 0 4.732.236 6.854.783 2.121.548 3.941 1.452 5.678 2.741l3.916-7.44c-2.189-1.548-4.677-2.782-7.439-3.524-2.77-.737-5.724-.979-9.009-.979z"/></svg><svg preserveAspectRatio="none" width="160" height="160" viewBox="-10 -10 160 160" id="coin-gbp" y="713" xmlns="http://www.w3.org/2000/svg"><path fill="#FFF" d="M69.442 38.5c-2.568 0-5.056.448-7.253 1.302-2.2.858-4.145 2.005-5.765 3.534-1.617 1.525-2.771 3.317-3.72 5.393-.948 2.079-1.488 4.254-1.488 6.695 0 2.14.349 4.023.93 5.765.581 1.742 1.188 3.824 1.86 4.835h-6.138v8.183h8.927c.244 1.014.372 2.19.372 3.533 0 2.569-.986 4.9-2.79 7.254-1.803 2.354-4.402 4.296-7.439 5.579V99.5h31.058c2.387 0 4.429-.664 6.323-1.488 1.894-.827 3.553-1.912 4.835-3.348 1.283-1.434 2.274-3.188 2.976-5.207.702-2.016.932-4.309.93-6.695l-8.555-1.301c0 1.285-.223 2.555-.558 3.719-.34 1.162-.788 2.274-1.487 3.162-.703.887-1.659 1.495-2.79 2.045-1.13.553-2.38.93-3.905.93H57.167c2.748-1.008 4.798-3.412 6.323-5.951a16.78 16.78 0 0 0 2.418-8.74c0-.426-.156-.903-.186-1.302-.03-.397.061-.106 0-1.116h15.622v-8.183h-18.04c-.796-1.016-1.621-3.282-2.231-5.021-.611-1.742-.93-3.436-.93-5.393 0-1.465.41-2.93.93-4.091a7.959 7.959 0 0 1 2.045-2.79c.855-.763 1.845-1.461 2.976-1.859 1.131-.399 2.311-.558 3.533-.558 2.81 0 5.078.797 6.882 2.417 1.801 1.621 2.725 4.206 2.789 7.625l8.927-1.488a23.548 23.548 0 0 0-1.116-5.765c-.641-1.921-1.696-3.617-3.161-5.208-1.468-1.589-3.412-2.899-5.765-3.905-2.353-1.01-5.199-1.489-8.741-1.489z"/></svg><svg preserveAspectRatio="none" width="160" height="160" viewBox="-10 -10 160 160" id="coin-usd" y="873" xmlns="http://www.w3.org/2000/svg"><path d="M74.45 74.774c2.643.586 4.279 1.668 5.502 3.075 1.221 1.41 1.78 2.991 1.78 4.693 0 1.86-.556 3.446-1.78 4.855-1.222 1.41-2.859 2.434-5.502 2.912V74.774zM68.3 50.5v15.05c-3.52-.53-4.897-1.447-5.987-2.751-1.09-1.3-1.78-2.83-1.78-4.531 0-1.967.83-3.58 2.104-5.017 1.276-1.436 3.024-2.324 5.664-2.75zm0-15.697v8.739c-2.642.265-4.611.877-6.472 1.78-1.861.905-3.662 2.042-5.017 3.398-1.356 1.355-2.329 2.83-3.074 4.531-.746 1.702-1.133 3.427-1.133 5.34 0 3.937 1.194 7.104 3.56 9.548 2.364 2.445 5.776 4.167 9.871 5.017l2.266.485V90.31a11.614 11.614 0 0 1-4.37-1.618c-1.17-.718-2.44-1.58-3.236-2.59-.797-1.01-1.328-2.015-1.78-3.236-.45-1.224-.863-2.447-.971-3.722L50.5 81.41c.215 1.754.66 3.585 1.456 5.34.794 1.754 1.963 3.393 3.399 4.855 1.436 1.461 3.267 2.683 5.34 3.722 2.073 1.037 4.086 1.676 7.606 1.942v7.93h6.15v-7.93c1.76-.315 4.558-1.014 6.472-1.942 1.914-.93 3.252-2.014 4.531-3.399a14.924 14.924 0 0 0 2.913-4.693c.663-1.701 1.134-3.42 1.133-5.178 0-3.615-1.224-6.7-3.722-9.386-2.5-2.682-5.89-4.435-10.357-5.34l-.97-.324V50.662c.879.32 2.011.792 2.912 1.456.905.667 1.466 1.467 2.104 2.266.64.797 1.247 1.578 1.618 2.427.374.854.54 1.686.647 2.428l7.283-2.59a21.86 21.86 0 0 0-1.457-4.045c-.665-1.406-1.583-2.822-2.75-4.046-1.174-1.224-2.616-2.172-4.37-3.075-1.755-.905-4.227-1.623-5.988-1.942v-8.738H68.3z" fill="#fff"/></svg><svg preserveAspectRatio="none" width="36.81" height="36.81" viewBox="-3.16 -1.31 36.81 36.81" id="currency-eur" y="1033" xmlns="http://www.w3.org/2000/svg"><path fill="#231F20" d="M15.238 10.153c1.854 0 3.599.723 4.91 2.034a6.897 6.897 0 0 1 2.034 4.91 6.9 6.9 0 0 1-2.034 4.91 6.897 6.897 0 0 1-4.91 2.034 6.902 6.902 0 0 1-4.909-2.034 6.896 6.896 0 0 1-2.033-4.91 6.9 6.9 0 0 1 2.033-4.91 6.9 6.9 0 0 1 4.909-2.034m0-1.461a8.403 8.403 0 0 0-8.402 8.404 8.403 8.403 0 1 0 16.806 0 8.403 8.403 0 0 0-8.404-8.404z"/><path fill="#231F20" d="M10.892 17.717a3.346 3.346 0 0 1-.022-.303 6.754 6.754 0 0 1 0-.644c.005-.107.012-.202.022-.281H9.725v-1.152h1.389a4.546 4.546 0 0 1 .747-1.419c.32-.404.684-.742 1.093-1.012a5.045 5.045 0 0 1 2.743-.821c.502 0 .966.057 1.39.17a3.52 3.52 0 0 1 1.138.525l-.592 1.138a2.533 2.533 0 0 0-.886-.421 4.191 4.191 0 0 0-1.05-.126c-.66 0-1.269.163-1.825.488-.557.325-.973.818-1.249 1.478h4.33l-.577 1.152h-4.035a3.58 3.58 0 0 0-.043.591c0 .276.013.488.043.635h3.502l-.577 1.183h-2.615c.275.651.681 1.133 1.219 1.448s1.13.472 1.78.472c.443 0 .854-.065 1.234-.198a2.53 2.53 0 0 0 .968-.6l.725 1.034a4.366 4.366 0 0 1-1.293.762 4.524 4.524 0 0 1-1.634.287c-.473 0-.938-.068-1.396-.207a4.943 4.943 0 0 1-1.294-.606 4.547 4.547 0 0 1-1.816-2.394H9.725v-1.183h1.167v.004z"/></svg><svg preserveAspectRatio="none" width="37" height="37" viewBox="-3.16 -1.31 37 37" id="currency-eur__light" y="1070" xmlns="http://www.w3.org/2000/svg"><g transform="matrix(1.01148 0 0 1.01148 -.078 -.1)"><path d="M15.238 10.153c1.854 0 3.598.723 4.91 2.034a6.896 6.896 0 0 1 2.033 4.91 6.896 6.896 0 0 1-2.033 4.909 6.899 6.899 0 0 1-4.91 2.034 6.9 6.9 0 0 1-4.909-2.034 6.894 6.894 0 0 1-2.033-4.909 6.9 6.9 0 0 1 2.033-4.91 6.9 6.9 0 0 1 4.909-2.034m0-1.461a8.404 8.404 0 0 0-8.403 8.404 8.405 8.405 0 1 0 8.403-8.404z" fill="#fff"/><path d="M10.892 17.717a3.757 3.757 0 0 1-.022-.303 6.754 6.754 0 0 1 0-.644c.005-.107.012-.202.022-.281H9.725v-1.152h1.389a4.546 4.546 0 0 1 .747-1.419c.32-.404.684-.742 1.093-1.012a5.04 5.04 0 0 1 2.742-.821c.502 0 .965.057 1.389.17a3.52 3.52 0 0 1 1.138.525l-.592 1.138a2.542 2.542 0 0 0-.886-.421 4.189 4.189 0 0 0-1.049-.126c-.661 0-1.269.163-1.825.488-.557.325-.973.818-1.249 1.478h4.331l-.577 1.152h-4.035a3.58 3.58 0 0 0-.043.591c0 .276.014.488.043.635h3.502l-.577 1.184h-2.615c.275.65.682 1.133 1.219 1.448.537.315 1.13.472 1.78.472.443 0 .854-.066 1.234-.198a2.53 2.53 0 0 0 .968-.6l.725 1.034a4.379 4.379 0 0 1-1.293.762 4.524 4.524 0 0 1-1.634.287 4.94 4.94 0 0 1-2.69-.812 4.535 4.535 0 0 1-1.817-2.394H9.725v-1.183h1.167v.002z" fill="#fff"/></g></svg><svg preserveAspectRatio="none" width="36.81" height="36.81" viewBox="-3.16 -1.31 36.81 36.81" id="currency-gbp" y="1107" xmlns="http://www.w3.org/2000/svg"><path fill="#231F20" d="M15.238 10.153c1.854 0 3.598.723 4.91 2.034a6.895 6.895 0 0 1 2.034 4.909 6.9 6.9 0 0 1-2.034 4.91 6.899 6.899 0 0 1-4.91 2.034 6.902 6.902 0 0 1-4.909-2.034 6.897 6.897 0 0 1-2.034-4.91c0-1.854.722-3.598 2.034-4.909a6.9 6.9 0 0 1 4.909-2.034m0-1.461a8.404 8.404 0 0 0-8.403 8.404 8.405 8.405 0 1 0 8.403-8.404z"/><path fill="#231F20" d="M12.991 16.197a10.596 10.596 0 0 1-.282-.747c-.086-.26-.13-.55-.13-.871 0-.364.071-.703.212-1.014.14-.31.333-.58.575-.808.242-.229.527-.406.856-.535a2.938 2.938 0 0 1 1.069-.191c.53 0 .971.075 1.322.226.352.151.637.344.856.582.22.237.377.5.473.787.097.287.153.569.172.843l-1.344.232c-.01-.511-.148-.888-.417-1.129-.27-.243-.614-.363-1.034-.363-.184 0-.359.029-.529.089-.168.06-.316.146-.445.26-.128.114-.23.259-.308.432-.078.174-.116.37-.116.589 0 .292.045.569.137.829.089.26.196.523.313.788h2.659v1.18h-2.301a2.784 2.784 0 0 1 .027.37c0 .482-.114.915-.342 1.295a2.321 2.321 0 0 1-.959.883h2.782c.229 0 .427-.04.597-.122.169-.083.306-.19.411-.323.104-.132.183-.285.232-.459.051-.173.075-.355.075-.547l1.288.191c0 .355-.053.686-.157.986a2.302 2.302 0 0 1-.445.773 2.026 2.026 0 0 1-.712.507 2.374 2.374 0 0 1-.959.186H11.95v-1.301c.465-.192.833-.464 1.102-.815.27-.352.405-.72.405-1.103a2.14 2.14 0 0 0-.055-.521h-1.37v-1.179h.959z"/></svg><svg preserveAspectRatio="none" width="36.88" height="36.88" viewBox="-3.17 -1.31 36.88 36.88" id="currency-gbp__light" y="1144" xmlns="http://www.w3.org/2000/svg"><g transform="matrix(.99952 0 0 .99952 .045 .046)"><path d="M15.238 10.153c1.854 0 3.598.723 4.91 2.034a6.895 6.895 0 0 1 2.034 4.909 6.897 6.897 0 0 1-2.034 4.909 6.899 6.899 0 0 1-4.91 2.034 6.9 6.9 0 0 1-4.909-2.034 6.895 6.895 0 0 1-2.034-4.909c0-1.854.722-3.598 2.034-4.909a6.9 6.9 0 0 1 4.909-2.034m0-1.461a8.405 8.405 0 1 0 .001 16.809 8.405 8.405 0 0 0-.001-16.809z" fill="#fff"/><path d="M12.991 16.197a10.126 10.126 0 0 1-.281-.747 2.738 2.738 0 0 1-.13-.871c0-.364.071-.703.212-1.014a2.55 2.55 0 0 1 1.431-1.343 2.937 2.937 0 0 1 1.068-.191c.53 0 .971.075 1.322.226.351.151.637.344.855.582.221.237.377.5.474.787.096.287.153.569.172.843l-1.344.232c-.01-.511-.148-.888-.417-1.129-.271-.243-.614-.363-1.035-.363-.184 0-.359.029-.528.089a1.254 1.254 0 0 0-.754.692c-.078.174-.116.37-.116.589 0 .292.045.569.137.829.09.26.196.523.313.788h2.659v1.18h-2.301a2.244 2.244 0 0 1 .027.37c0 .483-.113.915-.342 1.295a2.333 2.333 0 0 1-.959.883h2.781c.229 0 .427-.04.596-.122.17-.083.307-.19.412-.323.104-.132.182-.285.231-.459.052-.173.076-.355.076-.547l1.288.191c0 .355-.054.686-.158.986a2.26 2.26 0 0 1-.445.773 2 2 0 0 1-.712.507 2.368 2.368 0 0 1-.959.186h-4.617v-1.301c.466-.192.833-.464 1.103-.815.27-.352.405-.72.405-1.103a2.14 2.14 0 0 0-.055-.521h-1.37v-1.179h.961z" fill="#fff"/></g></svg><svg preserveAspectRatio="none" width="50.48" height="52" viewBox="-10 -10 50.48 52" id="currency-usd" y="1181" xmlns="http://www.w3.org/2000/svg"><path fill="#231F20" d="M15.238 6.153c3.123 0 6.06 1.217 8.269 3.426a11.612 11.612 0 0 1 3.424 8.269c0 3.123-1.215 6.059-3.424 8.268s-5.146 3.426-8.269 3.426a11.615 11.615 0 0 1-8.268-3.426 11.617 11.617 0 0 1-3.426-8.268c0-3.124 1.217-6.062 3.426-8.269a11.615 11.615 0 0 1 8.268-3.426m0-2.461c-7.817 0-14.153 6.337-14.153 14.154C1.084 25.663 7.42 32 15.238 32c7.816 0 14.154-6.338 14.154-14.154.001-7.817-6.337-14.154-14.154-14.154z"/><path fill="#231F20" d="M14.371 27.877v-2.398c-.802-.078-1.5-.266-2.101-.565-.6-.3-1.106-.66-1.522-1.084a4.917 4.917 0 0 1-.97-1.396 5.205 5.205 0 0 1-.438-1.521l2.193-.693c.03.369.11.73.241 1.084.131.355.312.678.543.971.23.291.515.541.854.75.338.207.738.351 1.199.427V18.63l-.576-.114c-1.187-.246-2.119-.724-2.805-1.433-.685-.707-1.027-1.631-1.027-2.769 0-.554.106-1.077.324-1.569a4.29 4.29 0 0 1 .912-1.326 5.052 5.052 0 0 1 1.395-.98 5.504 5.504 0 0 1 1.777-.508V7.502h1.799v2.446c.709.093 1.315.271 1.824.53.508.262.93.57 1.27.924.338.354.604.734.795 1.143.193.407.336.795.428 1.164l-2.075.762a2.77 2.77 0 0 0-.209-.691 3.206 3.206 0 0 0-.438-.716 3.57 3.57 0 0 0-.67-.635 2.656 2.656 0 0 0-.924-.427v4.73l.348.067c1.291.263 2.299.781 3.021 1.56.725.777 1.086 1.688 1.086 2.734 0 .508-.099 1.008-.289 1.5a4.274 4.274 0 0 1-.842 1.338 4.636 4.636 0 0 1-1.386 1.004c-.555.27-1.198.451-1.938.543v2.397l-1.799.002zm-2.123-13.66c0 .492.157.928.473 1.305.316.377.865.642 1.65.795v-4.384c-.679.124-1.199.393-1.568.808a2.153 2.153 0 0 0-.555 1.476zm6.115 6.992c0-.492-.178-.941-.53-1.35-.354-.409-.908-.695-1.662-.865v4.453c.754-.139 1.309-.412 1.662-.818.353-.408.53-.88.53-1.42z"/></svg><svg preserveAspectRatio="none" width="37" height="37" viewBox="-3.17 -1.31 37 37" id="currency-usd__light" y="1233" xmlns="http://www.w3.org/2000/svg"><g transform="matrix(1.01142 0 0 1.01142 -.078 -.1)"><path d="M15.238 10.153c1.854 0 3.598.723 4.91 2.034a6.893 6.893 0 0 1 2.032 4.909 6.897 6.897 0 0 1-2.032 4.909 6.901 6.901 0 0 1-4.91 2.034 6.897 6.897 0 0 1-4.909-2.034 6.896 6.896 0 0 1-2.034-4.909c0-1.854.722-3.599 2.034-4.909a6.899 6.899 0 0 1 4.909-2.034m0-1.461a8.404 8.404 0 0 0-8.404 8.404 8.405 8.405 0 1 0 8.404-8.404z" fill="#fff"/><path d="M14.724 23.052v-1.424a3.559 3.559 0 0 1-1.248-.336 3.345 3.345 0 0 1-.904-.644 2.922 2.922 0 0 1-.576-.828 3.075 3.075 0 0 1-.26-.903l1.302-.412c.018.219.065.434.143.644a2.1 2.1 0 0 0 .322.576c.137.173.306.321.507.445.201.123.438.208.712.254v-2.863l-.342-.068c-.705-.146-1.258-.43-1.666-.851-.406-.419-.61-.968-.61-1.644 0-.329.063-.639.192-.931.128-.292.309-.555.542-.788a3.02 3.02 0 0 1 .828-.582c.32-.155.671-.256 1.056-.301v-1.441h1.067v1.452a3.35 3.35 0 0 1 1.084.315c.301.156.552.338.753.549.201.21.359.436.473.679.114.242.199.472.254.691l-1.232.453a1.825 1.825 0 0 0-.385-.836 2.074 2.074 0 0 0-.397-.377 1.569 1.569 0 0 0-.549-.254v2.809l.207.04c.767.156 1.365.463 1.794.925.43.462.645 1.003.645 1.624a2.52 2.52 0 0 1-.671 1.685c-.22.237-.494.436-.823.597-.329.16-.712.268-1.151.322v1.424h-1.067v-.001zm-1.261-8.111c0 .292.093.551.281.775.188.224.514.381.98.472v-2.603c-.403.073-.712.233-.932.479-.219.248-.329.54-.329.877zm3.63 4.152c0-.292-.105-.559-.314-.802-.21-.242-.539-.412-.987-.514v2.645c.448-.082.777-.245.987-.486.21-.243.314-.523.314-.843z" fill="#fff"/></g></svg><svg preserveAspectRatio="none" width="35" height="35" viewBox="-10 -10 35 35" id="default" y="1270" xmlns="http://www.w3.org/2000/svg"><g transform="translate(-14.5 -153.755)" fill="#2b292a"><path d="M14.5 153.755h15v10h-15zM14.5 166.755h15v2h-15z"/></g></svg><svg preserveAspectRatio="none" width="59.62" height="40.67" viewBox="-1.51 -3.1 59.62 40.67" id="delivery" y="1305" xmlns="http://www.w3.org/2000/svg"><path fill="#2C2A2B" d="M26.576 20.682a2.586 2.586 0 0 1 2.584 2.582 2.586 2.586 0 0 1-2.584 2.584 2.587 2.587 0 0 1-2.584-2.584 2.586 2.586 0 0 1 2.584-2.582m0-1.723a4.307 4.307 0 1 0 .001 8.613 4.307 4.307 0 0 0-.001-8.613zM40.355 20.682a2.585 2.585 0 0 1 2.584 2.582 2.585 2.585 0 0 1-2.584 2.584 2.585 2.585 0 0 1-2.582-2.584 2.585 2.585 0 0 1 2.582-2.582m0-1.723a4.306 4.306 0 1 0 .002 8.612 4.306 4.306 0 0 0-.002-8.612z"/><path fill="#2C2A2B" d="M48.107 16.374L43.801 6.9H18.825v17.227h2.502v-1.723h-.779V8.623h22.087l3.75 8.083v5.698h-.834v1.723h2.556z"/><path fill="#2C2A2B" d="M31.744 22.404h3.445v1.723h-3.445zM14.518 19.82h2.584v1.723h-2.584zM12.796 16.374h4.307v1.723h-4.307zM10.212 12.93h6.891v1.723h-6.891zM8.49 9.485h8.613v1.723H8.49z"/></svg><svg preserveAspectRatio="none" width="55.5" height="38" viewBox="-1.51 -3.1 55.5 38" id="delivery__small" y="1346" xmlns="http://www.w3.org/2000/svg"><g transform="matrix(.85822 0 0 .85822 1.204 1.238)" fill="#2c2a2b"><path d="M31.795 19.996c-1.543 0-2.914 1.372-2.914 2.913 0 1.544 1.371 2.914 2.914 2.914 1.54 0 2.912-1.37 2.912-2.914 0-1.541-1.371-2.913-2.912-2.913m0-1.747a4.661 4.661 0 1 1-.002 9.323 4.661 4.661 0 0 1 .002-9.323z"/><path d="M12.568 6.597h26.8v17.479H37.62V8.345H13.733l-3.495 8.2v7.53H8.49v-7.867z"/><path d="M25.968 22.328H21.89v1.748h4.078zM45.777 18.832h-4.661v1.748h4.661zM48.133 15.336h-6.991v1.748h6.991zM49.855 11.841h-8.739v1.748h8.739zM16.064 19.996c-1.542 0-2.913 1.372-2.913 2.913 0 1.544 1.371 2.914 2.913 2.914 1.542 0 2.913-1.37 2.913-2.914 0-1.541-1.371-2.913-2.913-2.913m0-1.747a4.661 4.661 0 1 1-.001 9.323 4.661 4.661 0 0 1 .001-9.323z"/></g></svg><svg preserveAspectRatio="none" width="41.54" height="41.54" viewBox="-10 -10 41.54 41.54" id="details" y="1384" xmlns="http://www.w3.org/2000/svg"><path fill="#2C2A2A" d="M10.77 21.538C4.831 21.538 0 16.707 0 10.769S4.831 0 10.77 0s10.77 4.831 10.77 10.769c-.001 5.938-4.832 10.769-10.77 10.769zm0-19.815c-4.988 0-9.047 4.058-9.047 9.046s4.059 9.047 9.047 9.047 9.047-4.059 9.047-9.047-4.059-9.046-9.047-9.046z"/><path fill="#2C2A2A" d="M9.908 8.938h1.723V16.8H9.908zM9.72 4.737h2.1v2.1h-2.1z"/></svg><svg preserveAspectRatio="none" width="47.57" height="42.4" viewBox="-10 -10 47.57 42.4" id="details__small" y="1426" xmlns="http://www.w3.org/2000/svg"><path fill="#2C2A2A" d="M13.783 3.014c2.187 0 4.241.852 5.787 2.396a8.128 8.128 0 0 1 2.396 5.787c0 2.188-.85 4.242-2.396 5.787-1.546 1.547-3.601 2.398-5.787 2.398s-4.241-.852-5.787-2.398a8.123 8.123 0 0 1-2.398-5.787c0-2.186.852-4.24 2.398-5.787a8.136 8.136 0 0 1 5.787-2.396m0-1.722c-5.472 0-9.908 4.436-9.908 9.906 0 5.473 4.437 9.908 9.908 9.908s9.908-4.436 9.908-9.908c0-5.471-4.436-9.906-9.908-9.906z"/><path fill="#2C2A2A" d="M12.922 9.368h1.723v7.861h-1.723zM12.733 5.168h2.1v2.1h-2.1z"/></svg><svg preserveAspectRatio="none" width="36.59" height="39.95" viewBox="-10 -10 36.59 39.95" id="download" y="1469" xmlns="http://www.w3.org/2000/svg"><g transform="translate(3.297 -3.963)"><g transform="matrix(.60264 0 0 .60264 0 7.926)"><path d="M1.74 9.91l8.297 8.296-1.74 1.74L0 11.65z"/><path d="M16.594 11.65l-8.297 8.297-1.74-1.74 8.297-8.297z"/></g><path d="M4.258 7.926h1.483v7.071H4.258z"/></g></svg><svg preserveAspectRatio="none" width="36.59" height="39.95" viewBox="-10 -10 36.59 39.95" id="download__active" y="1509" xmlns="http://www.w3.org/2000/svg"><g transform="translate(3.297 -3.963)"><g transform="matrix(.60264 0 0 .60264 0 7.926)"><path d="M1.74 9.91l8.297 8.296-1.74 1.74L0 11.65z"/><path d="M16.594 11.65l-8.297 8.297-1.74-1.74 8.297-8.297z"/></g><path d="M4.258 7.926h1.483v7.071H4.258z"/></g></svg><svg preserveAspectRatio="none" width="37.54" height="34.62" viewBox="-3.53 0.16 37.54 34.62" id="email" y="1549" xmlns="http://www.w3.org/2000/svg"><g fill="#FFF"><path d="M15.238 19.966l-8.555-8.555 1.033-1.034 7.522 7.522 7.522-7.522 1.033 1.034z"/><path d="M22.546 11.625v11.693H7.931V11.625h14.615m1.461-1.461H6.469v14.615h17.538V10.164z"/></g></svg><svg preserveAspectRatio="none" width="30.23" height="42" viewBox="-10 -10 30.23 42" id="facebook" y="1584" xmlns="http://www.w3.org/2000/svg"><path d="M8.862 6.588H6.308V4.911c0-.628.417-.775.71-.775h1.803V1.37l-2.482-.007c-2.756 0-3.383 2.061-3.383 3.38v1.845H1.362v2.85h1.594V17.5h3.352V9.438H8.57l.292-2.85" fill="#231f20"/></svg><svg preserveAspectRatio="none" width="30.23" height="42" viewBox="-10 -10 30.23 42" id="facebook__light" y="1626" xmlns="http://www.w3.org/2000/svg"><path d="M8.862 8.157H6.308V6.48c0-.628.417-.775.71-.775h1.803V2.938l-2.482-.007c-2.756 0-3.383 2.062-3.383 3.382v1.844H1.362v2.85h1.594v8.062h3.352v-8.062H8.57l.292-2.85" fill="#fff"/></svg><svg preserveAspectRatio="none" width="35" height="35" viewBox="-10 -10 35 35" id="grid" y="1668" xmlns="http://www.w3.org/2000/svg"><g transform="translate(-44.5 -154.119)" fill="#2b292a"><path d="M44.5 154.119h6v6h-6zM53.5 154.119h6v6h-6z"/><g><path d="M44.5 163.119h6v6h-6zM53.5 163.119h6v6h-6z"/></g></g></svg><svg preserveAspectRatio="none" width="157.99" height="63.45" viewBox="-10 -10 157.99 63.45" id="haus__dark" y="1703" xmlns="http://www.w3.org/2000/svg"><g transform="translate(-322.143 -574.57)"><path d="M342.974 617.225v-17.737c-.003-2.525-.647-4.08-1.608-5.033-.961-.957-2.383-1.447-4.323-1.457-3.624.092-6.099 2.055-6.18 6.368v17.859h-8.72v-42.654h8.72v12.512c2.074-1.77 4.89-2.81 8.09-2.804 6.958.012 12.731 5.83 12.746 13.793v19.153h-8.725zM353.895 601.152c.002-7.92 6.523-16.84 16.932-16.872 3.451 0 6.377 1.072 8.46 2.767v-1.965h8.722v32.144h-8.722v-2.102c-2.32 1.837-5.44 2.895-8.768 2.899-10.506-.001-16.607-8.643-16.624-16.871m17.428 8.521c4.383-.01 8.201-3.786 8.212-8.521-.01-4.731-3.83-8.514-8.212-8.521-4.524.008-8.328 3.79-8.337 8.52.01 4.732 3.813 8.512 8.337 8.522M395.1 614.18c-2.75-2.498-4.536-6.194-4.528-10.686v-18.413h8.724v17.86c.026 3.79 2.676 6.337 6.053 6.361 3.38-.024 6.029-2.57 6.056-6.361v-17.86h8.726v18.413c.006 4.492-1.778 8.188-4.532 10.685-2.751 2.501-6.435 3.843-10.25 3.843-3.81 0-7.496-1.342-10.25-3.843M421.163 612.51l-.948-.806 5.25-5.324.845-.86.828.888c2.042 2.24 5.627 4.03 8.521 4.004 1.629.001 2.87-.463 3.668-1.037.81-.577 1.111-1.26 1.092-1.568-.018-1.212-.752-1.835-2.942-2.313l-3.631-.674c-4.286-.799-7.148-1.88-9.05-3.498-1.917-1.622-2.642-3.828-2.622-6.149 0-2.85 1.21-5.609 3.44-7.623 2.228-2.014 5.456-3.273 9.425-3.271 4.368-.013 8.314 1.344 12.506 4.343l1.001.714-5.152 6.372-.9-.759c-2.969-2.49-5.43-3.049-7.269-3.056-1.203-.005-2.388.307-3.17.8-.797.521-1.148 1.063-1.16 1.802.025.59.155.817.566 1.165.418.33 1.224.645 2.379.842l6.468 1.232c5.554.914 8.927 4.111 8.833 9.089-.004 2.497-1.015 5.299-3.272 7.495-2.26 2.196-5.752 3.711-10.522 3.704h-.044c-5.312 0-9.937-1.932-14.14-5.512" fill="#2c2a2b"/><text style="line-height:125%" x="384.772" y="513.977" font-weight="400" font-size="40" font-family="Sans" letter-spacing="0" word-spacing="0" fill="#2c2a2b"/><circle cx="453.884" cy="581.567" r="5.391" fill="none" stroke="#2c2a2b" stroke-width="1.218"/><path d="M453.555 581.08c.335 0 .579-.067.725-.195.146-.122.225-.329.225-.621 0-.286-.079-.487-.225-.615-.146-.122-.39-.183-.725-.183h-.682v1.614h.682m-.682 1.115v2.375h-1.62v-6.28h2.472c.829 0 1.432.14 1.816.42.39.275.578.713.578 1.316 0 .415-.097.756-.298 1.024-.201.262-.5.463-.908.584.226.055.42.171.597.348.177.176.354.444.53.81l.883 1.778H455.2l-.768-1.559c-.152-.31-.31-.53-.469-.64-.158-.115-.372-.176-.633-.176h-.457"/></g></svg><svg preserveAspectRatio="none" width="157.99" height="63.45" viewBox="-10 -10 157.99 63.45" id="haus__light" y="1767" xmlns="http://www.w3.org/2000/svg"><g transform="translate(-322.143 -574.57)"><path d="M342.974 617.225v-17.737c-.003-2.525-.647-4.08-1.608-5.033-.961-.957-2.383-1.447-4.323-1.457-3.624.092-6.099 2.055-6.18 6.368v17.859h-8.72v-42.654h8.72v12.512c2.074-1.77 4.89-2.81 8.09-2.804 6.958.012 12.731 5.83 12.746 13.793v19.153h-8.725zM353.895 601.152c.002-7.92 6.523-16.84 16.932-16.872 3.451 0 6.377 1.072 8.46 2.767v-1.965h8.722v32.144h-8.722v-2.102c-2.32 1.837-5.44 2.895-8.768 2.899-10.506-.001-16.607-8.643-16.624-16.871m17.428 8.521c4.383-.01 8.201-3.786 8.212-8.521-.01-4.731-3.83-8.514-8.212-8.521-4.524.008-8.328 3.79-8.337 8.52.01 4.732 3.813 8.512 8.337 8.522M395.1 614.18c-2.75-2.498-4.536-6.194-4.528-10.686v-18.413h8.724v17.86c.026 3.79 2.676 6.337 6.053 6.361 3.38-.024 6.029-2.57 6.056-6.361v-17.86h8.726v18.413c.006 4.492-1.778 8.188-4.532 10.685-2.751 2.501-6.435 3.843-10.25 3.843-3.81 0-7.496-1.342-10.25-3.843M421.163 612.51l-.948-.806 5.25-5.324.845-.86.828.888c2.042 2.24 5.627 4.03 8.521 4.004 1.629.001 2.87-.463 3.668-1.037.81-.577 1.111-1.26 1.092-1.568-.018-1.212-.752-1.835-2.942-2.313l-3.631-.674c-4.286-.799-7.148-1.88-9.05-3.498-1.917-1.622-2.642-3.828-2.622-6.149 0-2.85 1.21-5.609 3.44-7.623 2.228-2.014 5.456-3.273 9.425-3.271 4.368-.013 8.314 1.344 12.506 4.343l1.001.714-5.152 6.372-.9-.759c-2.969-2.49-5.43-3.049-7.269-3.056-1.203-.005-2.388.307-3.17.8-.797.521-1.148 1.063-1.16 1.802.025.59.155.817.566 1.165.418.33 1.224.645 2.379.842l6.468 1.232c5.554.914 8.927 4.111 8.833 9.089-.004 2.497-1.015 5.299-3.272 7.495-2.26 2.196-5.752 3.711-10.522 3.704h-.044c-5.312 0-9.937-1.932-14.14-5.512" fill="#fff"/><text style="line-height:125%" x="384.772" y="513.977" font-weight="400" font-size="40" font-family="Sans" letter-spacing="0" word-spacing="0" fill="#fff"/><circle cx="453.884" cy="581.567" r="5.391" fill="none" stroke="#fff" stroke-width="1.218"/><path d="M453.555 581.08c.335 0 .579-.067.725-.195.146-.122.225-.329.225-.621 0-.286-.079-.487-.225-.615-.146-.122-.39-.183-.725-.183h-.682v1.614h.682m-.682 1.115v2.375h-1.62v-6.28h2.472c.829 0 1.432.14 1.816.42.39.275.578.713.578 1.316 0 .415-.097.756-.298 1.024-.201.262-.5.463-.908.584.226.055.42.171.597.348.177.176.354.444.53.81l.883 1.778H455.2l-.768-1.559c-.152-.31-.31-.53-.469-.64-.158-.115-.372-.176-.633-.176h-.457" fill="#fff"/></g></svg><svg preserveAspectRatio="none" width="35" height="35" viewBox="-10 -10 35 35" id="list" y="1831" xmlns="http://www.w3.org/2000/svg"><g transform="translate(-74.5 -154.119)" fill="#2b292a"><path d="M74.5 154.119h3v3h-3zM74.5 160.119h3v3h-3zM74.5 166.119h3v3h-3zM80.5 154.119h9v3h-9zM80.5 160.119h9v3h-9zM80.5 166.119h9v3h-9z"/></g></svg><svg viewBox="-10 -10 41.5 41.5" width="41.5" height="41.5" id="made-to-order" y="1866" xmlns="http://www.w3.org/2000/svg"><style>.bmst0{stroke:#2c2a2a;stroke-width:.25;stroke-miterlimit:10}.bmst0,.bmst1{fill:#2c2a2a}</style><g id="bmLayer_2"><path class="bmst0" d="M16.3 15.2l-1 1c-.3.3-.8.3-1.1 0l-2.5-2.5c-.3-.3-.3-.8 0-1.1l1-1c.3-.3.8-.3 1.1 0l2.5 2.5c.3.3.3.8 0 1.1z"/><path class="bmst0" d="M11.7 12.9L8.2 9.4c-.3-.3-.6-.3-1 0-.4.5.2.6-.3 1.1l-.5.5c-.3.3-.6.2-.8 0L4 9.4c-.2-.2-.4-.5-.1-.9s.3-.2.6-.5.8-.1.9 0c.1.1 0-.3.2-.6S6.2 6.1 8 5.2s4.2-.2 4.1.1c-.1.3-1.8-.1-2.7.8-.3.3-.5 1.2-.2 1.5l4 4"/></g><g id="bmLayer_1" xmlns:cc="http://creativecommons.org/ns#" xmlns:dc="http://purl.org/dc/elements/1.1/" xmlns:inkscape="http://www.inkscape.org/namespaces/inkscape" xmlns:rdf="http://www.w3.org/1999/02/22-rdf-syntax-ns#" xmlns:sodipodi="http://sodipodi.sourceforge.net/DTD/sodipodi-0.dtd" xmlns:svg="http://www.w3.org/2000/svg"><g id="bmg3" transform="matrix(-1 0 0 1 28.816 .004)"><g id="bmg3360" transform="matrix(1.087 0 0 1.08706 -2.507 -.004)"><g id="bmg5"><path id="bmpath7" class="bmst1" d="M18.9 18.1c-2.2 0-4.2-.9-5.8-2.4-1.5-1.5-2.4-3.6-2.4-5.8s.9-4.2 2.4-5.8c1.5-1.5 3.6-2.4 5.8-2.4s4.2.9 5.8 2.4c1.5 1.5 2.4 3.6 2.4 5.8s-.9 4.2-2.4 5.8c-1.6 1.5-3.6 2.4-5.8 2.4m0 1.7c5.5 0 9.9-4.4 9.9-9.9S24.4 0 18.9 0 9 4.4 9 9.9s4.4 9.9 9.9 9.9z"/></g></g></g></g></svg><svg preserveAspectRatio="none" width="44.88" height="35" viewBox="-10 -10 44.88 35" id="master" y="1908" xmlns="http://www.w3.org/2000/svg"><path d="M18.733 8.054c-.587 0-.704.26-.704.478 0 .109.067.302.31.302.478 0 .579-.63.562-.763-.017 0-.034-.017-.168-.017zm-6.887-1.066c-.437 0-.52.495-.52.546h.889c-.009-.042.075-.546-.37-.546zm-6.04 1.066c-.588 0-.705.26-.705.478 0 .109.067.302.31.302.478 0 .579-.63.562-.763-.017 0-.033-.017-.168-.017zm16.887-.982c-.352 0-.63.411-.63 1.024 0 .377.135.62.42.62.437 0 .638-.562.638-.981.008-.462-.143-.663-.428-.663zM17.55.168c-1.82 0-3.49.671-4.773 1.77a7.668 7.668 0 0 1 2.055 3.305h-.352a7.39 7.39 0 0 0-1.955-3.078 7.338 7.338 0 0 0-1.954 3.078h-.353A7.655 7.655 0 0 1 12.4 1.83 7.455 7.455 0 0 0 7.5 0 7.497 7.497 0 0 0 0 7.5C0 11.644 3.356 15 7.5 15c1.87 0 3.582-.688 4.9-1.82a7.734 7.734 0 0 1-2.048-3.02h.361a7.352 7.352 0 0 0 1.812 2.676 7.352 7.352 0 0 0 1.812-2.677h.361a7.585 7.585 0 0 1-1.921 2.903 7.325 7.325 0 0 0 4.773 1.77c4.044 0 7.333-3.288 7.333-7.332 0-4.044-3.289-7.332-7.333-7.332zM3.163 9.446l.453-2.86-1.024 2.86h-.545l-.067-2.86-.487 2.86H.721l.638-3.8h1.166l.034 2.332.788-2.332h1.259l-.63 3.8h-.813zm2.726 0l.026-.302c-.017 0-.252.37-.823.37-.293 0-.772-.16-.772-.856 0-.89.722-1.183 1.418-1.183.11 0 .344.017.344.017s.025-.05.025-.202c0-.243-.218-.276-.511-.276-.52 0-.873.142-.873.142l.118-.688s.42-.176.964-.176c.286 0 1.1.034 1.1.965l-.311 2.198h-.705zm2.962-.973c0 1.057-1.024 1.015-1.208 1.015-.672 0-.873-.092-.898-.1l.11-.697c0-.008.335.118.704.118.218 0 .495-.017.495-.277 0-.386-.999-.294-.999-1.208 0-.805.596-1.04 1.192-1.04.453 0 .738.058.738.058l-.1.705s-.437-.033-.546-.033c-.285 0-.436.058-.436.26 0 .41.948.21.948 1.2zm1.166-1.359L9.79 8.498c-.017.11.017.26.294.26.067 0 .15-.025.201-.025l-.1.68c-.084.025-.31.1-.596.1-.37 0-.638-.21-.638-.68 0-.318.453-2.919.47-2.935h.797l-.084.47h.395l-.101.746h-.411zm1.938 1.695c.402 0 .847-.193.847-.193l-.143.772s-.26.134-.839.134c-.637 0-1.375-.269-1.375-1.393 0-.973.595-1.837 1.392-1.837.873 0 1.141.638 1.141 1.166 0 .21-.1.73-.1.73H11.25c0-.017-.151.62.705.62zm2.65-1.552c-.553-.193-.595.872-.83 2.198h-.822l.495-3.088h.747l-.068.445s.269-.486.621-.486c.101 0 .151.008.151.008-.1.218-.201.411-.293.923zm2.291 2.147s-.428.11-.696.11c-.948 0-1.435-.655-1.435-1.653 0-1.502.898-2.299 1.82-2.299.412 0 .898.193.898.193l-.134.847s-.327-.226-.73-.226c-.545 0-1.032.52-1.032 1.46 0 .461.227.897.789.897.268 0 .663-.193.663-.193l-.143.864zm1.921.042l.025-.302c-.017 0-.251.37-.822.37-.294 0-.772-.16-.772-.856 0-.89.722-1.183 1.418-1.183.11 0 .344.017.344.017s.025-.05.025-.202c0-.243-.218-.276-.512-.276-.52 0-.872.142-.872.142l.117-.688s.42-.176.965-.176c.285 0 1.1.034 1.1.965l-.311 2.198c-.009-.009-.705-.009-.705-.009zm1.653.009h-.822l.495-3.088h.746l-.067.445s.269-.487.62-.487c.102 0 .152.009.152.009-.11.218-.201.41-.294.923-.553-.193-.595.88-.83 2.198zm2.441-.009l.034-.285s-.269.336-.747.336c-.663 0-.99-.638-.99-1.292 0-1.015.613-1.896 1.342-1.896.47 0 .772.41.772.41l.176-1.065h.797l-.612 3.792h-.772zm1.493-.016a.21.21 0 0 1-.117.033.193.193 0 0 1-.117-.033.243.243 0 0 1-.093-.093.21.21 0 0 1-.033-.117c0-.042.008-.084.033-.118a.243.243 0 0 1 .093-.092.21.21 0 0 1 .117-.033c.042 0 .084.008.117.033.042.017.068.05.093.092a.21.21 0 0 1 .033.118.193.193 0 0 1-.033.117.243.243 0 0 1-.093.093zm-.025-.386a.223.223 0 0 0-.1-.025.224.224 0 0 0-.101.025.165.165 0 0 0-.076.075.223.223 0 0 0-.025.1c0 .034.009.068.025.101a.165.165 0 0 0 .076.076.223.223 0 0 0 .1.025.224.224 0 0 0 .101-.025.164.164 0 0 0 .076-.076.224.224 0 0 0 .025-.1.224.224 0 0 0-.025-.1.165.165 0 0 0-.076-.076zm-.033.31l-.025-.042a.21.21 0 0 0-.042-.059c-.009-.008-.017-.008-.034-.008h-.025v.11h-.042v-.261h.092c.034 0 .05 0 .067.008.017.009.026.017.034.026.008.008.008.025.008.041 0 .017-.008.034-.016.05-.017.018-.034.026-.05.026.008 0 .016.008.024.017.009.008.025.025.042.05l.034.05h-.067zm-.017-.185c0-.008 0-.016-.008-.016l-.017-.017c-.009 0-.025-.009-.042-.009h-.05v.076h.05c.025 0 .042 0 .05-.008.017-.009.017-.017.017-.026z"/></svg><svg preserveAspectRatio="none" width="37.56" height="36.82" viewBox="-10 -10 37.56 36.82" id="menu" y="1943" xmlns="http://www.w3.org/2000/svg"><g transform="translate(.537 4.089)"><path d="M0 3.501h16.487v1.637H0zM0 7.973h16.487v1.46H0zM0-.791h16.487v1.46H0z"/></g></svg><svg preserveAspectRatio="none" width="37.56" height="36.82" viewBox="-10 -10 37.56 36.82" id="menu__light" y="1980" xmlns="http://www.w3.org/2000/svg"><g transform="translate(.537 4.089)" fill="#fff"><path d="M0 3.501h16.487v1.637H0zM0 7.973h16.487v1.46H0zM0-.791h16.487v1.46H0z"/></g></svg><svg preserveAspectRatio="none" width="30" height="30" viewBox="-10 -10 30 30" id="minus" y="2017" xmlns="http://www.w3.org/2000/svg"><path d="M0 4h10v2H0z"/></svg><svg preserveAspectRatio="none" width="32" height="32" viewBox="-10 -10 32 32" id="nav-arrow-left" y="2047" xmlns="http://www.w3.org/2000/svg"><path fill="#2b292a" d="M10 0L2 6l8 6z"/></svg><svg preserveAspectRatio="none" width="32" height="32" viewBox="-10 -10 32 32" id="nav-arrow-right" y="2079" xmlns="http://www.w3.org/2000/svg"><path fill="#2b292a" d="M10 6L2 0v12z"/></svg><svg id="note-bespoke" data-name="Layer 1" viewBox="-10 -10 45 42" width="45" height="42" y="2111" xmlns="http://www.w3.org/2000/svg"><defs><style>.btcls-1{fill:#2c2a2a}</style></defs><title>note-Bespoke</title><path class="btcls-1" d="M14 10a4 4 0 1 1-4-4 4 4 0 0 1 4 4zm-4-2a2 2 0 1 0 2 2 2 2 0 0 0-2-2zM18 10h2v10h-2zM23 18h2v4h-2z"/><path class="btcls-1" d="M8.5 18h15v2h-15z"/><path class="btcls-1" d="M10 20a10 10 0 1 1 10-10h-2a8 8 0 1 0-8 8"/></svg><svg id="note-clock" data-name="Layer 1" viewBox="-10 -10 42 42" width="42" height="42" y="2153" xmlns="http://www.w3.org/2000/svg"><defs><style>.bucls-1{fill:#2c2a2a}</style></defs><title>note-Speedy Clock</title><path class="bucls-1" d="M10 5.04h1.51v6.07H10z"/><path class="bucls-1" transform="rotate(-45 12.084 12.854)" d="M11.22 10.78h1.72v4.16h-1.72z"/><path class="bucls-1" d="M22 11A11 11 0 1 1 11 0a11 11 0 0 1 11 11zM11 2a9 9 0 1 0 9 9 9 9 0 0 0-9-9z"/></svg><svg id="note-details" data-name="Layer 1" viewBox="-10 -10 42 42" width="42" height="42" y="2195" xmlns="http://www.w3.org/2000/svg"><defs><style>.bvcls-1{fill:#2c2a2a}</style></defs><title>note-Details</title><path class="bvcls-1" d="M10 9h1.71v7H10zM10 6h1.71v2H10z"/><path class="bvcls-1" d="M22 11A11 11 0 1 1 11 0a11 11 0 0 1 11 11zM11 2a9 9 0 1 0 9 9 9 9 0 0 0-9-9z"/></svg><svg id="note-made-to-order" data-name="Layer 1" viewBox="-10 -10 42 42" width="42" height="42" y="2237" xmlns="http://www.w3.org/2000/svg"><defs><style>.bwcls-1{fill:#2c2a2a}</style></defs><title>note-Made-To-Order</title><path class="bwcls-1" d="M22 11A11 11 0 1 1 11 0a11 11 0 0 1 11 11zM11 2a9 9 0 1 0 9 9 9 9 0 0 0-9-9z"/><path class="bwcls-1" d="M7.8 7.45a5.24 5.24 0 0 1 2.8-1.84l.47 1.3a4.12 4.12 0 0 0-2.3 1.5z"/><path class="bwcls-1" transform="rotate(-45 11.489 11.151)" d="M10.81 5.94h1.36v10.41h-1.36z"/><path class="bwcls-1" d="M8.13 7.1L6.58 8.66l-.34-.34-.97.97 1.67 1.67.97-.97-.36-.36L9.1 8.07l-.97-.97z"/></svg><svg id="note-out-of-stock" data-name="Layer 1" viewBox="-10 -10 42 42" width="42" height="42" y="2279" xmlns="http://www.w3.org/2000/svg"><defs><style>.bxcls-1{fill:#2c2a2a}</style></defs><title>note-Out of stock</title><path class="bxcls-1" transform="rotate(-45 14.043 2.833)" d="M13.21-.34h1.66v6.35h-1.66z"/><path class="bxcls-1" transform="rotate(-135 14.04 6.164)" d="M13.21 2.99h1.66v6.35h-1.66z"/><path class="bxcls-1" d="M11 5a7 7 0 1 0 7 7h2a9 9 0 1 1-9-9"/></svg><svg id="note-shipping" data-name="Layer 1" viewBox="-10 -10 55 42" width="55" height="42" y="2321" xmlns="http://www.w3.org/2000/svg"><defs><style>.bycls-1{fill:#2c2a2a}.bycls-2{fill:#2c2a2b}</style></defs><title>note-Shipping</title><path class="bycls-1" d="M12 16h4v2h-4z"/><path id="bypolygon11" class="bycls-2" d="M3 1h25v17h-2V3H4l-2 7v8H0V9.38z"/><path class="bycls-1" d="M25 17a4 4 0 1 1-4-4 4 4 0 0 1 4 4zm-4-2.3a2.3 2.3 0 1 0 2.3 2.3 2.3 2.3 0 0 0-2.3-2.3zM11 17a4 4 0 1 1-4-4 4 4 0 0 1 4 4zm-4-2.3A2.3 2.3 0 1 0 9.3 17 2.3 2.3 0 0 0 7 14.7zM29 7h6v1.69h-6zM29 10h4v1.67h-4zM29 13h2v1.73h-2z"/></svg><svg id="note-speedy-clock" data-name="Layer 1" viewBox="-10 -10 49 42" width="49" height="42" y="2363" xmlns="http://www.w3.org/2000/svg"><defs><style>.bzcls-1{fill:#2c2a2a}</style></defs><title>note-Speedy Shipping</title><path class="bzcls-1" d="M23 7h6v1.69h-6zM23 10h4v1.67h-4zM23 13h2v1.73h-2zM10 5.04h1.51v6.07H10z"/><path class="bzcls-1" transform="rotate(-45 12.084 12.854)" d="M11.22 10.78h1.72v4.16h-1.72z"/><path class="bzcls-1" d="M22 11A11 11 0 1 1 11 0a11 11 0 0 1 11 11zM11 2a9 9 0 1 0 9 9 9 9 0 0 0-9-9z"/></svg><svg id="note-two-man-delivery" data-name="Layer 1" viewBox="-10 -10 42 42" width="42" height="42" y="2405" xmlns="http://www.w3.org/2000/svg"><defs><style>.cacls-1{fill:#2c2a2b}.cacls-2{fill:#2c2a2a}</style></defs><title>note-Heavy</title><path id="capolygon11" class="cacls-1" d="M5 9L2.44 22H.13l3-15h15.71l3 15h-2.28L17 9z"/><path class="cacls-2" d="M15 4a4 4 0 1 1-4-4 4 4 0 0 1 4 4zm-4-2.3A2.3 2.3 0 1 0 13.3 4 2.3 2.3 0 0 0 11 1.7z"/><path class="cacls-1" d="M2 20h18v2H2z"/></svg><svg preserveAspectRatio="none" width="32.8" height="36" viewBox="-8.4 -10 32.8 36" id="padlock" y="2447" xmlns="http://www.w3.org/2000/svg"><path d="M13.333 6.4h-1.066V4.267c0-1.098-.419-2.306-1.254-3.091C10.176.393 9.173 0 8 0 6.828 0 5.824.393 4.987 1.175c-.836.785-1.254 1.993-1.254 3.092V6.4H1.6V16h12.8V6.4h-1.067zm-7.466 0V4.267c0-.556.207-1.293.622-1.683.415-.39.918-.451 1.511-.451.594 0 1.096.061 1.512.45.415.39.622 1.127.622 1.683V6.4H5.867z"/></svg><svg preserveAspectRatio="none" width="73.56" height="35" viewBox="-10 -10 73.55 35" id="paypal" y="2483" xmlns="http://www.w3.org/2000/svg"><path d="M50.537 0h3.018l-2.49 11.25h-2.989zM7.998.03q1.377 0 2.33 1.01.951 1.01.57 2.798-.351 1.728-1.596 2.71-1.245.981-2.945.981H4.043l-.82 3.721H0L2.46.03h5.538zm28.711 0q1.377 0 2.344 1.01.967 1.01.586 2.798-.235 1.142-.894 1.992-.66.85-1.611 1.274-.952.425-2.095.425h-2.285l-.791 3.721H28.74L31.201.03h5.508zM12.041 2.87q.146-.03.63-.146.483-.118.806-.19.322-.074.85-.147.527-.074 1.025-.074.82-.029 1.538.118.717.146 1.318.468.6.323.85.967.249.645.044 1.524l-1.23 5.859h-2.96l.205-.879q-.615.615-1.553.879-.937.264-1.772.132t-1.333-.923q-.498-.791-.264-2.08.323-1.524 1.831-2.183 1.51-.659 4.117-.659.087-.44-.088-.703-.176-.264-.528-.366-.351-.103-.937-.073-.762.029-1.64.234-.88.205-1.173.38zm28.77 0q.175-.03.512-.117.337-.088.63-.161.293-.073.66-.132.366-.059.761-.103.396-.044.806-.044.85-.029 1.567.118.718.146 1.318.468.601.323.865.967.263.645.058 1.524l-1.26 5.859H43.74l.205-.879q-.615.615-1.567.879t-1.802.132q-.85-.132-1.347-.923-.499-.791-.264-2.08.205-1.055 1.025-1.685.82-.63 2.022-.893 1.2-.264 2.959-.264.146-.674-.25-.923-.395-.249-1.303-.22-.527 0-1.143.118-.615.117-1.069.249-.454.132-.688.249zM6.006 5.391q.41 0 .806-.205.395-.206.673-.557.279-.352.367-.791.175-.645-.147-1.084-.322-.44-.937-.44H5.215l-.703 3.077h1.494zm28.74 0q.615 0 1.172-.454.557-.455.703-1.1.147-.644-.19-1.083-.337-.44-.923-.44h-1.64l-.645 3.077h1.523zM20.45 2.49l1.201 8.818L19.482 15h3.311l7.031-12.51h-3.047l-2.93 5.215-.468-5.215h-2.93zm-4.863 5.83q0-.294.146-.792h-.761q-1.377 0-1.758.733-.293.527-.015.879.279.351.806.351 1.289-.058 1.582-1.172zm28.799 0q.058-.499.176-.792h-.733q-1.465 0-1.787.733-.293.527-.015.879.279.351.806.351 1.318-.058 1.553-1.172z"/></svg><svg preserveAspectRatio="none" width="36.88" height="36.88" viewBox="-3.2 -1.38 36.88 36.88" id="phone" y="2518" xmlns="http://www.w3.org/2000/svg"><path fill="#FFF" d="M9.759 10.684l2.963 2.965a2.794 2.794 0 0 0 0 3.951l1.976 1.976c.546.545 1.261.817 1.976.817s1.43-.272 1.975-.817l2.965 2.963a5.107 5.107 0 0 1-3.623 1.501c-1.312 0-2.622-.5-3.623-1.501l-4.61-4.609c-2-2.002-2-5.245.001-7.246m0-2.067L8.725 9.65a6.54 6.54 0 0 0-1.929 4.656c0 1.759.685 3.412 1.929 4.655l4.611 4.611a6.543 6.543 0 0 0 4.655 1.927 6.542 6.542 0 0 0 4.655-1.928l1.033-1.034-1.033-1.033-2.964-2.963-1.033-1.033-1.032 1.033c-.253.252-.587.39-.942.39-.356 0-.691-.138-.944-.39l-1.975-1.976c-.253-.252-.391-.587-.391-.943s.138-.69.391-.942l1.033-1.033-1.033-1.034-2.964-2.963-1.033-1.033z"/></svg><svg preserveAspectRatio="none" width="44.19" height="44" viewBox="-10 -10 44.19 44" id="phone-tag" y="2555" xmlns="http://www.w3.org/2000/svg"><g transform="matrix(.20237 0 0 .20237 -56.056 -57.068)"><path d="M312.879 282H277v35.454l36.127 36.675 36.624-36.748L312.899 282h-.02zm-13.78 21.6a6.495 6.495 0 1 1-9.188-9.186 6.493 6.493 0 0 1 9.188 0 6.491 6.491 0 0 1 0 9.186zM377.577 304.927l-15.401 15.399c-1.197 1.197-1.855 2.871-1.853 4.705-.002 1.928.746 3.793 2.068 5.108l8.329 8.322-1.245 2.251c-2.751 4.944-6.505 11.719-13.674 18.878-7.178 7.185-13.97 10.947-18.936 13.7l-2.184 1.228-8.336-8.339c-2.765-2.758-7.161-2.85-9.818-.205l-15.392 15.401c-1.204 1.202-1.86 2.871-1.863 4.7 0 1.935.758 3.795 2.077 5.113l3.805 3.779.581.355a24.322 24.322 0 0 0 6.044 3.421c2.104.801 4.114 1.298 6.121 1.53 16.501 1.983 31.649-5.624 52.293-26.269 24.459-24.473 26.363-44.92 26.363-50.602a19.453 19.453 0 0 0-.068-1.725 25.28 25.28 0 0 0-1.549-6.146c-.859-2.188-1.995-4.213-3.409-6.005l-.676-.866-3.467-3.535c-2.764-2.756-7.163-2.84-9.81-.198z" fill="#2b292a"/></g></svg><svg preserveAspectRatio="none" width="37.03" height="42" viewBox="-10 -10 37.03 42" id="pinterest" y="2599" xmlns="http://www.w3.org/2000/svg"><path d="M8.902 2C4.4 2 2.13 5.228 2.13 7.92c0 1.63.617 3.08 1.94 3.62.218.09.412.005.475-.236.044-.166.148-.586.194-.761.063-.237.038-.32-.137-.528-.381-.45-.625-1.033-.625-1.859 0-2.395 1.792-4.539 4.666-4.539 2.545 0 3.943 1.556 3.943 3.632 0 2.733-1.21 5.04-3.004 5.04-.992 0-1.734-.82-1.496-1.826.285-1.2.836-2.496.836-3.364 0-.775-.416-1.422-1.278-1.422-1.013 0-1.828 1.049-1.828 2.453 0 .894.303 1.5.303 1.5s-1.037 4.394-1.22 5.164c-.361 1.533-.054 3.412-.028 3.601.015.113.16.14.226.055.093-.122 1.3-1.612 1.71-3.102.117-.421.667-2.605.667-2.605.33.629 1.292 1.181 2.315 1.181 3.047 0 5.114-2.777 5.114-6.494 0-2.812-2.381-5.43-6-5.43" fill="#231f20"/></svg><svg preserveAspectRatio="none" width="37.03" height="42" viewBox="-10 -10 37.03 42" id="pinterest__light" y="2641" xmlns="http://www.w3.org/2000/svg"><path d="M8.902 2.75C4.4 2.75 2.13 5.978 2.13 8.67c0 1.63.617 3.08 1.94 3.62.218.09.412.005.475-.236.044-.166.148-.586.194-.761.063-.237.038-.32-.137-.528-.381-.45-.625-1.033-.625-1.859 0-2.395 1.792-4.539 4.666-4.539 2.545 0 3.943 1.556 3.943 3.632 0 2.733-1.21 5.04-3.004 5.04-.992 0-1.734-.82-1.496-1.826.285-1.2.836-2.496.836-3.364 0-.775-.416-1.422-1.278-1.422-1.013 0-1.828 1.049-1.828 2.453 0 .894.303 1.5.303 1.5s-1.037 4.394-1.22 5.164c-.361 1.533-.054 3.412-.028 3.601.015.113.16.14.226.055.093-.122 1.3-1.612 1.71-3.102.117-.421.667-2.605.667-2.605.33.629 1.292 1.181 2.315 1.181 3.047 0 5.114-2.777 5.114-6.494 0-2.812-2.381-5.43-6-5.43" fill="#fff"/></svg><svg preserveAspectRatio="none" width="40" height="40" viewBox="-10 -10 40 40" id="play" y="2683" xmlns="http://www.w3.org/2000/svg"><path fill="#2b292a" d="M0 0v20l20-10z"/></svg><svg preserveAspectRatio="none" width="30" height="30" viewBox="-10 -10 30 30" id="plus" y="2723" xmlns="http://www.w3.org/2000/svg"><path d="M10 4H6V0H4v4H0v2h4v4h2V6h4z"/></svg><svg preserveAspectRatio="none" width="37.92" height="41.56" viewBox="-10 -10 37.92 41.56" id="re-up" y="2753" xmlns="http://www.w3.org/2000/svg"><g fill="#2C2A2A"><path d="M13.459 3.28l1.218 1.217-4.5 4.5L8.96 7.779z"/><path d="M14.677 4.498l-1.218 1.218-4.498-4.499 1.217-1.218z"/><path d="M12.241 4.498L13.46 3.28l1.219 1.218-1.218 1.22z"/></g><path fill="#2C2A2A" d="M8.96 21.557c-4.94 0-8.96-4.02-8.96-8.96s4.02-8.96 8.96-8.96V5.36c-3.99 0-7.237 3.246-7.237 7.236s3.247 7.237 7.237 7.237 7.237-3.247 7.237-7.237h1.723c0 4.941-4.02 8.961-8.96 8.961z"/></svg><svg preserveAspectRatio="none" width="39.25" height="39.29" viewBox="-10 -10 39.25 39.29" id="sale" y="2795" xmlns="http://www.w3.org/2000/svg"><path d="M9.628 0H0v9.69l.02-.019 9.618 9.617 9.612-9.617L9.627.04 9.628 0zM6.033 6.064A1.7 1.7 0 1 1 3.628 3.66a1.7 1.7 0 0 1 2.405 2.404z" fill="#e85a46"/></svg><svg preserveAspectRatio="none" width="39" height="39.05" viewBox="-10 -10 39 39.05" id="sale_ol" y="2835" xmlns="http://www.w3.org/2000/svg"><g transform="matrix(.64324 0 0 .64324 -.792 -.767)" fill="#ea5940"><path d="M3.698 3.675l9.526.056 7.542 7.541 6.513 6.514-4.767 4.766-4.766 4.767-6.514-6.514-7.535-7.535V3.675M1.231 1.193v13.098l8.258 8.258 8.258 8.258 6.512-6.511 6.51-6.511-8.258-8.258-8.258-8.259-13.022-.075z"/><circle cx="8.018" cy="7.979" r="1.851"/></g></svg><svg preserveAspectRatio="none" width="38.8" height="38.8" viewBox="-10 -10 38.8 38.8" id="search" y="2875" xmlns="http://www.w3.org/2000/svg"><path d="M11.4 11.4c-1 1-2.3 1.5-3.7 1.5-1.4 0-2.7-.5-3.7-1.5S2.5 9.1 2.5 7.7C2.5 6.3 3 5 4 4s2.3-1.5 3.7-1.5c1.4 0 2.7.5 3.7 1.5s1.5 2.3 1.5 3.7c0 1.4-.5 2.7-1.5 3.7m2.6.8c.9-1.3 1.4-2.8 1.4-4.5 0-2.1-.8-4-2.3-5.4C11.7.9 9.7 0 7.7 0c-2.1 0-4 .8-5.4 2.3C.8 3.8 0 5.7 0 7.7c0 2 .8 4 2.3 5.4 1.5 1.5 3.4 2.3 5.4 2.3 1.6 0 3.2-.5 4.5-1.4l4.8 4.8 1.8-1.8-4.8-4.8z" fill="#2b292a"/></svg><svg preserveAspectRatio="none" width="38.8" height="38.8" viewBox="-10 -10 38.8 38.8" id="search__light" y="2914" xmlns="http://www.w3.org/2000/svg"><path d="M11.4 11.4c-1 1-2.3 1.5-3.7 1.5-1.4 0-2.7-.5-3.7-1.5S2.5 9.1 2.5 7.7C2.5 6.3 3 5 4 4s2.3-1.5 3.7-1.5c1.4 0 2.7.5 3.7 1.5s1.5 2.3 1.5 3.7c0 1.4-.5 2.7-1.5 3.7m2.6.8c.9-1.3 1.4-2.8 1.4-4.5 0-2.1-.8-4-2.3-5.4C11.7.9 9.7 0 7.7 0c-2.1 0-4 .8-5.4 2.3C.8 3.8 0 5.7 0 7.7c0 2 .8 4 2.3 5.4 1.5 1.5 3.4 2.3 5.4 2.3 1.6 0 3.2-.5 4.5-1.4l4.8 4.8 1.8-1.8-4.8-4.8z" fill="#fff"/></svg><svg preserveAspectRatio="none" width="41" height="41" viewBox="-10 -10 41 41" id="select" x="119" y="2953" xmlns="http://www.w3.org/2000/svg"><path fill="#2b292a" d="M10.5 14l5.25-7H5.25z"/></svg><svg preserveAspectRatio="none" width="41" height="41" viewBox="-10 -10 41 41" id="select-disabled" x="119" y="2994" xmlns="http://www.w3.org/2000/svg"><ellipse cx="10.5" cy="10.5" rx="3.092" ry="3.092" fill="#eee" stroke-width=".816"/></svg><svg preserveAspectRatio="none" width="48.82" height="41.54" viewBox="-10 -10 48.82 41.54" id="speedy_clock" y="3035" xmlns="http://www.w3.org/2000/svg"><g transform="matrix(-1 0 0 1 28.816 .004)"><g fill="#2c2a2a"><path d="M2.6 13.536h4v1.5h-4zM.6 10.036h6v1.5h-6zM-.9 6.629h7.5v1.5H-.9z"/></g><g transform="matrix(1.087 0 0 1.08706 -2.507 -.004)"><path d="M18.908 18.093a8.136 8.136 0 0 1-5.787-2.396 8.129 8.129 0 0 1-2.396-5.788c0-2.186.85-4.242 2.396-5.787a8.127 8.127 0 0 1 5.787-2.398 8.13 8.13 0 0 1 5.787 2.398 8.125 8.125 0 0 1 2.398 5.787 8.135 8.135 0 0 1-2.398 5.788 8.136 8.136 0 0 1-5.787 2.396m0 1.722c5.472 0 9.908-4.436 9.908-9.907S24.38 0 18.908 0C13.436 0 9 4.437 9 9.908c0 5.471 4.437 9.907 9.908 9.907z" fill="#2c2a2a"/><g fill="#2c2a2a" transform="matrix(-1 0 0 1 38.494 0)"><path d="M19.77 9.843V3.547h-1.723v5.187zM22.004 13.329l.934-1.447-3.168-2.039v2.049z"/><path d="M19.77 9.843l-1.723-1.109v2.049l1.723 1.109z"/></g></g></g></svg><svg preserveAspectRatio="none" width="55.5" height="38" viewBox="-10 -10 55.5 38" id="speedy_van" y="3077" xmlns="http://www.w3.org/2000/svg"><g fill="#2C2A2A"><path d="M15.5 11.499c1.322 0 2.5 1.178 2.5 2.5 0 1.325-1.178 2.502-2.5 2.502-1.323 0-2.5-1.177-2.5-2.502 0-1.323 1.177-2.5 2.5-2.5m0-1.499a4 4 0 1 0 0 8 4 4 0 0 0 0-8z"/><path d="M32 0H9v15h1.5V1.5H31l3 7.038V15h1.5V8.25L32 0z"/><path d="M20.5 13.5H24V15h-3.5zM3.5 9.75h4v1.5h-4zM1.478 6.75h6v1.5h-6zM0 3.75h7.5v1.5H0zM29 11.499c1.322 0 2.5 1.178 2.5 2.5 0 1.325-1.178 2.502-2.501 2.502-1.322 0-2.499-1.177-2.499-2.502 0-1.323 1.177-2.5 2.5-2.5M28.999 10a4 4 0 1 0 .003 8 4 4 0 0 0-.003-8z"/></g></svg><svg preserveAspectRatio="none" width="36" height="36" viewBox="-10 -10 36 36" id="swatch" y="3115" xmlns="http://www.w3.org/2000/svg"><path d="M13.221 0h-.754v2.779H9.991V0h-.754v2.779H6.762V0h-.754v2.779H3.532V0h-.754v2.779H0v.753h2.778v2.476H0v.754h2.778v2.476H0v.754h2.778v2.476H0v.754h2.778V16h.753v-2.779h2.476V16h.754v-2.779h2.476V16h.754v-2.779h2.477V16h.753v-2.779H16v-.754h-2.779V9.991H16v-.754h-2.779V6.762H16v-.754h-2.779V3.532H16v-.754h-2.779V0zM9.237 3.532v2.476H6.762V3.532h2.475zm0 3.23v2.476H6.762V6.762h2.475zm-5.705-3.23h2.476v2.476H3.532V3.532zm0 3.23h2.476v2.476H3.532V6.762zm0 5.705V9.991h2.476v2.476H3.532zm3.23 0V9.991h2.476v2.476H6.762zm5.705 0H9.991V9.991h2.476v2.476zm0-3.23H9.991V6.762h2.476v2.475zm0-3.229H9.991V3.532h2.476v2.476z"/></svg><svg preserveAspectRatio="none" width="40.23" height="40.27" viewBox="-10 -10 40.23 40.27" id="tag" y="3151" xmlns="http://www.w3.org/2000/svg"><path d="M10.119 0H0v10.184l.021-.02 10.108 10.107 10.102-10.107L10.118.042 10.119 0zM6.34 6.373a1.787 1.787 0 1 1-2.527-2.526A1.787 1.787 0 0 1 6.34 6.373z" fill="#2b292a"/></svg><svg preserveAspectRatio="none" width="42" height="37.88" viewBox="-10 -10 42 37.88" id="twitter" y="3192" xmlns="http://www.w3.org/2000/svg"><path d="M19.25 3.823a6.648 6.648 0 0 1-1.944.532 3.393 3.393 0 0 0 1.488-1.872 6.74 6.74 0 0 1-2.15.82 3.386 3.386 0 0 0-5.768 3.089A9.603 9.603 0 0 1 3.9 2.855a3.388 3.388 0 0 0 1.048 4.522 3.394 3.394 0 0 1-1.534-.426v.044a3.387 3.387 0 0 0 2.716 3.319 3.403 3.403 0 0 1-1.53.057 3.387 3.387 0 0 0 3.163 2.351 6.794 6.794 0 0 1-5.012 1.403 9.576 9.576 0 0 0 5.19 1.521c6.226 0 9.63-5.158 9.63-9.633 0-.147-.002-.291-.009-.438a6.83 6.83 0 0 0 1.689-1.752" fill="#231f20"/></svg><svg preserveAspectRatio="none" width="42" height="37.88" viewBox="-10 -10 42 37.88" id="twitter__light" y="3230" xmlns="http://www.w3.org/2000/svg"><path d="M19.25 3.823a6.648 6.648 0 0 1-1.944.532 3.393 3.393 0 0 0 1.488-1.872 6.74 6.74 0 0 1-2.15.82 3.386 3.386 0 0 0-5.768 3.089A9.603 9.603 0 0 1 3.9 2.855a3.388 3.388 0 0 0 1.048 4.522 3.394 3.394 0 0 1-1.534-.426v.044a3.387 3.387 0 0 0 2.716 3.319 3.403 3.403 0 0 1-1.53.057 3.387 3.387 0 0 0 3.163 2.351 6.794 6.794 0 0 1-5.012 1.403 9.576 9.576 0 0 0 5.19 1.521c6.226 0 9.63-5.158 9.63-9.633 0-.147-.002-.291-.009-.438a6.83 6.83 0 0 0 1.689-1.752" fill="#fff"/></svg><svg preserveAspectRatio="none" width="46.5" height="38" viewBox="-10 -10 46.5 38" id="van" y="3268" xmlns="http://www.w3.org/2000/svg"><g fill="#2C2A2A"><path d="M6.5 11.499c1.322 0 2.5 1.178 2.5 2.5C9 15.324 7.822 16.5 6.5 16.5c-1.323 0-2.5-1.177-2.5-2.502 0-1.322 1.177-2.499 2.5-2.499M6.5 10a4 4 0 1 0 0 8 4 4 0 0 0 0-8z"/><path d="M23 0H0v15h1.5V1.5H22l3 7.038V15h1.5V8.25L23 0z"/><path d="M11.5 13.5H15V15h-3.5zM20 11.499c1.322 0 2.5 1.178 2.5 2.5 0 1.325-1.178 2.502-2.501 2.502-1.322 0-2.499-1.177-2.499-2.502 0-1.323 1.177-2.5 2.5-2.5M19.999 10a4 4 0 1 0 .003 8 4 4 0 0 0-.003-8z"/></g></svg><svg preserveAspectRatio="none" width="66.37" height="35" viewBox="-10 -10 66.37 35" id="visa" y="3306" xmlns="http://www.w3.org/2000/svg"><path d="M32.846 3.583q-1.34-.603-2.779-.57-1.038 0-1.59.385-.553.385-.553.871 0 .485.486.87.485.386 1.623.955 3.181 1.44 3.148 3.917 0 2.277-1.775 3.633Q29.632 15 26.652 15q-2.478-.033-4.185-.77l.502-3.281.468.268q1.909.77 3.55.77.904 0 1.573-.385.67-.385.703-1.089 0-.468-.435-.853-.435-.385-1.574-.955-.636-.334-1.121-.636-.486-.301-1.021-.787-.536-.485-.837-1.138-.302-.653-.302-1.39.034-2.109 1.825-3.431Q27.589 0 30.368 0q1.775 0 3.349.57l-.47 3.18zM17.176.268L11.25 14.799H7.3L4.218 3.214q1.607.636 2.93 1.942Q8.47 6.462 9.04 8.002 6.964 2.277 0 .536L.033.268h6.06Q7.5.268 7.802 1.44l1.306 6.696.435 2.01 3.65-9.878h3.984zm5.29 0l-2.343 14.531h-3.75L18.717.268h3.75zm23.907 14.531h-3.516q-.268-1.707-.402-2.176l-4.821-.034-.77 2.21h-3.985l5.592-13.36Q38.973.269 40.446.269h2.88zM40.748 4.152q-.1.268-.235.62-.134.35-.217.585-.084.235-.05.201-1.206 3.214-1.507 4.085h3.047l-.804-4.219z"/></svg><svg preserveAspectRatio="none" width="50.48" height="52" viewBox="-10 -10 50.48 52" id="zoom" y="3341" xmlns="http://www.w3.org/2000/svg"><path d="M12.733 6.154c4.75 0 8.616 3.865 8.616 8.616a8.557 8.557 0 0 1-2.524 6.093 8.555 8.555 0 0 1-6.092 2.523c-2.303 0-4.467-.896-6.094-2.523s-2.523-3.791-2.523-6.093.896-4.466 2.523-6.093 3.792-2.523 6.094-2.523m-.001-2.462c-6.118 0-11.077 4.96-11.077 11.078s4.959 11.078 11.077 11.078 11.079-4.96 11.079-11.078-4.96-11.078-11.079-11.078zM20.989 21.284l7.833 7.834-1.74 1.74-7.834-7.833z"/><path d="M11.503 8.616h2.461v12.309h-2.461z"/><path d="M6.578 13.54h12.31v2.461H6.578z"/></svg></svg>